<svg clip-rule="evenodd" fill-rule="evenodd" stroke-linejoin="round" stroke-miterlimit="1.5" viewBox="0 0 201 201" xmlns="http://www.w3.org/2000/svg"><g fill="none" transform="matrix(1.11845 0 0 1.0977 -72.509 -113.29)"><path d="m65.656 103.415h178.819v182.199h-178.819z"/><g stroke="#000"><path d="m19.495 562.4h166.434v164.251h-166.434z" stroke-width="15.52" transform="matrix(.53938242484 0 0 .72958320531 100.8265475036 -258.668416368)"/><path d="m352.763 613.69v95.375" stroke-linecap="round" stroke-width="11" transform="matrix(.89409880172 0 0 .91098879268 -184.814194132 -391.131672448)"/><path d="m352.763 613.69v95.375" stroke-linecap="round" stroke-width="11" transform="matrix(.89409880172 0 0 .91098879268 -167.482229624 -391.131672448)"/><path d="m352.763 613.69v95.375" stroke-linecap="round" stroke-width="11" transform="matrix(.89409880172 0 0 .91098879268 -149.973153676 -391.131672448)"/><path d="m352.763 613.69v95.375" stroke-linecap="round" stroke-width="11" transform="matrix(.89409880172 0 0 .91098879268 -132.464077728 -391.131672448)"/><path d="m352.763 613.69v95.375" stroke-linecap="round" stroke-width="9.68" transform="matrix(0 -.910993 1.12531 0 -589.188 467.258)"/><path d="m352.763 558.376h52.454v31.118h-52.454z" stroke-linecap="round" stroke-width="11" transform="matrix(.894096 0 0 .910993 -183.787 -391.132)"/></g></g></svg>