<svg clip-rule="evenodd" fill-rule="evenodd" stroke-linejoin="round" stroke-miterlimit="2" viewBox="0 0 201 201" xmlns="http://www.w3.org/2000/svg"><g transform="matrix(1.11845 0 0 1.0977 -73.093 -112.924)"><path d="m65.656 103.415h178.819v182.199h-178.819z" fill="none"/><path d="m377.954 912.961 7.763-23.237c.876-2.62 3.714-4.037 6.335-3.162l22.131 7.394c2.621.876 4.037 3.714 3.162 6.335l-7.763 23.237 6.421 2.145c5.242 1.751 8.076 7.428 6.324 12.669l-32.492 97.258c-1.751 5.24-7.428 8.07-12.669 6.32l-44.262-14.78c-5.241-1.76-8.075-7.43-6.324-12.67l32.492-97.26c1.751-5.242 7.428-8.075 12.67-6.324zm21.741 40.159c-.994-.097-2.027.068-2.993.531l-18.062 8.656-8.656-18.062c-.419-.876-1.035-1.595-1.77-2.13-1.631-1.187-3.846-1.465-5.791-.533-2.821 1.352-4.014 4.741-2.662 7.562l8.656 18.062-18.062 8.656c-2.822 1.352-4.015 4.74-2.663 7.561 1.056 2.204 3.355 3.414 5.655 3.194.644-.062 1.289-.236 1.907-.532l18.062-8.655 8.656 18.062c.583 1.216 1.544 2.13 2.676 2.668 1.493.708 3.281.763 4.885-.006 2.821-1.352 4.014-4.74 2.662-7.562l-8.655-18.062 18.062-8.655c2.821-1.352 4.014-4.741 2.662-7.562-.889-1.855-2.659-3.006-4.569-3.193z" transform="matrix(.894096 0 0 .910993 -216.988 -674.847)"/><ellipse cx="442.981" cy="905.798" rx="4.203" ry="4.345" transform="matrix(1.37548 0 0 1.40148 -424.433 -1124.49)"/><ellipse cx="442.981" cy="905.798" rx="4.203" ry="4.345" transform="matrix(1.37548 0 0 1.40148 -410.977 -1110.37)"/><ellipse cx="442.981" cy="905.798" rx="4.203" ry="4.345" transform="matrix(1.37548 0 0 1.40148 -413.08 -1090.13)"/><ellipse cx="442.981" cy="905.798" rx="4.203" ry="4.345" transform="matrix(1.37548 0 0 1.40148 -418.549 -1143.06)"/><ellipse cx="442.981" cy="905.798" rx="4.203" ry="4.345" transform="matrix(1.37548 0 0 1.40148 -406.594 -1130.58)"/><ellipse cx="442.981" cy="905.798" rx="4.203" ry="4.345" transform="matrix(1.37548 0 0 1.40148 -393.138 -1116.46)"/><ellipse cx="442.981" cy="905.798" rx="4.203" ry="4.345" transform="matrix(1.37548 0 0 1.40148 -395.241 -1096.22)"/><ellipse cx="442.981" cy="905.798" rx="4.203" ry="4.345" transform="matrix(1.37548 0 0 1.40148 -397.344 -1075.98)"/><ellipse cx="442.981" cy="905.798" rx="4.203" ry="4.345" transform="matrix(1.37548 0 0 1.40148 -400.711 -1149.15)"/><ellipse cx="442.981" cy="905.798" rx="4.203" ry="4.345" transform="matrix(1.37548 0 0 1.40148 -388.756 -1136.67)"/><ellipse cx="442.981" cy="905.798" rx="4.203" ry="4.345" transform="matrix(1.37548 0 0 1.40148 -379.506 -1104.28)"/><ellipse cx="442.981" cy="905.798" rx="4.203" ry="4.345" transform="matrix(1.37548 0 0 1.40148 -379.506 -1082.07)"/><ellipse cx="442.981" cy="905.798" rx="4.203" ry="4.345" transform="matrix(1.37548 0 0 1.40148 -442.455 -1118.4)"/><ellipse cx="442.981" cy="905.798" rx="4.203" ry="4.345" transform="matrix(1.37548 0 0 1.40148 -429 -1104.28)"/><ellipse cx="442.981" cy="905.798" rx="4.203" ry="4.345" transform="matrix(1.37548 0 0 1.40148 -436.572 -1136.97)"/></g></svg>