<svg clip-rule="evenodd" fill-rule="evenodd" stroke-linejoin="round" stroke-miterlimit="1.5" viewBox="0 0 201 201" xmlns="http://www.w3.org/2000/svg"><g transform="matrix(1.11845 0 0 1.0977 -72.49 -113.29)"><path d="m65.656 103.415h178.819v182.199h-178.819z" fill="none"/><path d="m19.495 562.4h166.434v164.251h-166.434z" fill="none" stroke="#000" stroke-width="11" transform="matrix(.894096 0 0 .910993 63.2316 -392.644)"/><path d="m962.92 672.617h-21.559v20.622h21.559zm-41.243-56.396h20.622v-3.906c0-5.103.859-9.243 2.577-12.42 1.719-3.176 4.557-4.764 8.515-4.764 3.541 0 6.196 1.223 7.967 3.671 1.77 2.447 2.656 5.65 2.656 9.607 0 3.125-.443 6.067-1.328 8.827s-2.422 5.338-4.609 7.733l-5.936 6.718c-3.541 3.957-6.041 7.733-7.499 11.326s-2.187 7.993-2.187 13.201v6.092h19.372v-2.343c0-3.958.598-7.186 1.796-9.686 1.198-2.499 3.151-5.259 5.859-8.28l6.248-7.03c3.75-4.374 6.328-8.436 7.734-12.185s2.109-7.811 2.109-12.185c0-9.165-2.734-16.482-8.202-21.95s-13.722-8.201-24.762-8.201c-5.103 0-9.607.807-13.513 2.421-3.905 1.614-7.134 3.827-9.686 6.639-2.551 2.812-4.478 6.197-5.78 10.155s-1.953 8.28-1.953 12.967z" fill-rule="nonzero" transform="matrix(.858192 0 0 .910993 -696.037 -385.216)"/><g fill="none" stroke="#000" stroke-linecap="round"><path d="m352.763 613.69v95.375" stroke-width="13.57" transform="matrix(0 -.910993 .500941 0 -141.912 467.547)"/><path d="m352.763 613.69v95.375" stroke-width="13.57" transform="matrix(0 -.910993 .500941 0 -141.912 500.121)"/><path d="m352.763 613.69v95.375" stroke-width="14.05" transform="matrix(0 -.910993 .425731 0 -95.7569 519.807)"/><path d="m352.763 613.69v95.375" stroke-width="14.98" transform="matrix(0 -.910993 .25047 0 11.7987 545.217)"/><path d="m352.763 613.69v95.375" stroke-width="13.57" transform="matrix(0 -.910993 .500941 0 -141.912 565.268)"/></g></g></svg>