<svg clip-rule="evenodd" fill-rule="evenodd" stroke-linecap="square" stroke-miterlimit="1.5" viewBox="0 0 201 201" xmlns="http://www.w3.org/2000/svg" xmlns:xlink="http://www.w3.org/1999/xlink"><clipPath id="a"><path clip-rule="evenodd" d="m65.656 103.415h178.819v182.199h-178.819z"/></clipPath><g transform="matrix(1.11845 0 0 1.0977 -72.44 -113.24)"><path d="m65.656 103.415h178.819v182.199h-178.819z" fill="none"/><g clip-path="url(#a)"><path d="m1526.89 1831.5c-6.58-.77-13.22-.77-19.8 0l-1.66 22.03c-5.53 1.02-10.9 2.76-15.97 5.19l-14.29-16.85c-5.78 3.24-11.15 7.15-16.02 11.64l11.61 18.8c-3.88 4.07-7.19 8.64-9.87 13.58l-21.47-5.23c-2.76 6.02-4.82 12.34-6.12 18.83l20.45 8.39c-.74 5.57-.74 11.22 0 16.79l-20.45 8.39c1.3 6.49 3.36 12.81 6.12 18.83l21.47-5.23c2.68 4.94 5.99 9.51 9.87 13.58l-11.61 18.8c4.87 4.49 10.24 8.4 16.02 11.64l14.29-16.85c5.07 2.43 10.44 4.17 15.97 5.19l1.66 22.03c6.58.77 13.22.77 19.8 0l1.66-22.03c5.53-1.02 10.9-2.76 15.97-5.19l14.29 16.85c5.78-3.24 11.15-7.15 16.02-11.64l-11.61-18.8c3.88-4.07 7.19-8.64 9.87-13.58l21.47 5.23c2.76-6.02 4.82-12.34 6.12-18.83l-20.44-8.39c.74-5.57.74-11.22 0-16.79l20.44-8.39c-1.3-6.49-3.36-12.81-6.12-18.83l-21.47 5.23c-2.68-4.94-5.99-9.51-9.87-13.58l11.61-18.8c-4.87-4.49-10.24-8.4-16.02-11.64l-14.29 16.85c-5.07-2.43-10.44-4.17-15.97-5.19zm-9.9 49.7c19.36 0 35.07 15.72 35.07 35.08 0 19.35-15.71 35.07-35.07 35.07s-35.07-15.72-35.07-35.07c0-19.36 15.71-35.08 35.07-35.08z" fill="none" stroke="#000" stroke-width="17" transform="matrix(.894096 0 0 .910993 -1201.27 -1551.2)"/></g></g></svg>