<svg clip-rule="evenodd" fill-rule="evenodd" stroke-linejoin="round" stroke-miterlimit="2" viewBox="0 0 201 201" xmlns="http://www.w3.org/2000/svg"><g transform="matrix(1.11845 0 0 1.0977 -72.817 -113.41)"><path d="m65.656 103.415h178.819v182.199h-178.819z" fill="none"/><path d="m308.146 1732.99h34.705v34.705h-34.705z" transform="matrix(.953935 0 0 .971963 -216.041 -1567.83)"/><path d="m308.146 1732.99h34.705v34.705h-34.705z" transform="matrix(.953935 0 0 .971963 -216.041 -1567.83)"/><path d="m308.146 1732.99h34.705v34.705h-34.705z" transform="matrix(.953935 0 0 .971963 -216.041 -1527.12)"/><path d="m308.146 1732.99h34.705v34.705h-34.705z" fill="#f20d0d" transform="matrix(.953935 0 0 .971963 -216.041 -1486.4)"/><path d="m308.146 1732.99h34.705v34.705h-34.705z" fill="#f20d0d" transform="matrix(.953935 0 0 .971963 -216.041 -1445.68)"/><path d="m308.146 1732.99h34.705v34.705h-34.705z" transform="matrix(.953935 0 0 .971963 -175.639 -1567.83)"/><path d="m308.146 1732.99h34.705v34.705h-34.705z" fill="#f25e0d" transform="matrix(.953935 0 0 .971963 -175.639 -1527.12)"/><path d="m308.146 1732.99h34.705v34.705h-34.705z" fill="#f25e0d" transform="matrix(.953935 0 0 .971963 -175.639 -1486.4)"/><path d="m308.146 1732.99h34.705v34.705h-34.705z" transform="matrix(.953935 0 0 .971963 -175.639 -1445.68)"/><path d="m308.146 1732.99h34.705v34.705h-34.705z" fill="#e5f20d" transform="matrix(.953935 0 0 .971963 -135.237 -1567.83)"/><path d="m308.146 1732.99h34.705v34.705h-34.705z" fill="#e5f20d" transform="matrix(.953935 0 0 .971963 -135.237 -1527.12)"/><path d="m308.146 1732.99h34.705v34.705h-34.705z" fill="#008607" transform="matrix(.953935 0 0 .971963 -135.237 -1486.4)"/><path d="m308.146 1732.99h34.705v34.705h-34.705z" fill="#008607" transform="matrix(.953935 0 0 .971963 -135.237 -1445.68)"/><path d="m308.146 1732.99h34.705v34.705h-34.705z" transform="matrix(.953935 0 0 .971963 -94.8358 -1567.83)"/><path d="m308.146 1732.99h34.705v34.705h-34.705z" fill="#0d79f2" transform="matrix(.953935 0 0 .971963 -94.8358 -1527.12)"/><path d="m308.146 1732.99h34.705v34.705h-34.705z" fill="#0d79f2" transform="matrix(.953935 0 0 .971963 -94.8358 -1486.4)"/><path d="m308.146 1732.99h34.705v34.705h-34.705z" transform="matrix(.953935 0 0 .971963 -94.8358 -1445.68)"/></g></svg>