<svg clip-rule="evenodd" fill-rule="evenodd" stroke-linecap="round" stroke-linejoin="round" stroke-miterlimit="1.5" viewBox="0 0 201 201" xmlns="http://www.w3.org/2000/svg"><g transform="matrix(1.11845 0 0 1.0977 -72.632 -112.84)"><path d="m65.656 103.415h178.819v182.199h-178.819z" fill="none"/><path d="m86.492 0 113.508 100-112.974 100z" transform="matrix(.233666 0 0 .191509 65.9205 118.529)"/><path d="m86.492 0 113.508 100-112.974 100z" transform="matrix(0 .238082 -.187957 0 118.188 164.583)"/><g fill="none" stroke="#000"><path d="m352.763 613.69v95.375" stroke-width="10.83" transform="matrix(0 -.910993 .922164 0 -431.492 456.061)"/><path d="m352.763 613.69v95.375" stroke-width="10.83" transform="matrix(0 -.910993 .922164 0 -431.492 482.75)"/><path d="m352.763 613.69v95.375" stroke-width="10.83" transform="matrix(0 -.910993 .922164 0 -431.492 510.184)"/><path d="m352.763 613.69v95.375" stroke-width="12.92" transform="matrix(0 -.910993 .599508 0 -202.708 536.086)"/><path d="m352.763 613.69v95.375" stroke-width="12.92" transform="matrix(0 -.910993 .599508 0 -202.708 562.712)"/><path d="m352.763 613.69v95.375" stroke-width="12.92" transform="matrix(0 -.910993 .599508 0 -202.708 587.938)"/></g></g></svg>