<svg clip-rule="evenodd" fill-rule="evenodd" stroke-linejoin="round" stroke-miterlimit="2" viewBox="0 0 201 201" xmlns="http://www.w3.org/2000/svg"><g transform="matrix(1.11845 0 0 1.0977 -72.811 -112.84)"><path d="m65.656 103.415h178.819v182.199h-178.819z" fill="none"/><path d="m51.082 6.102c0-3.368-2.289-6.102-5.108-6.102h-40.866c-2.819 0-5.108 2.734-5.108 6.102v187.796c0 3.368 2.289 6.102 5.108 6.102h40.866c2.819 0 5.108-2.734 5.108-6.102z" transform="matrix(.85976333392 0 0 .73339673664 100.5752242652 121.17455258)"/><path d="m51.082 6.102c0-3.368-2.289-6.102-5.108-6.102h-40.866c-2.819 0-5.108 2.734-5.108 6.102v187.796c0 3.368 2.289 6.102 5.108 6.102h40.866c2.819 0 5.108-2.734 5.108-6.102z" transform="matrix(.85976333392 0 0 .73339673664 165.637031244 121.17455258)"/></g></svg>