<svg clip-rule="evenodd" fill-rule="evenodd" stroke-linejoin="round" stroke-miterlimit="2" viewBox="0 0 201 201" xmlns="http://www.w3.org/2000/svg"><g transform="matrix(1.11845 0 0 1.0977 -73.31 -112.84)"><path d="m65.656 103.415h178.819v182.199h-178.819z" fill="none"/><path d="m51.082 6.226c0-3.436-2.289-6.226-5.108-6.226h-40.866c-2.819 0-5.108 2.79-5.108 6.226v187.548c0 3.436 2.289 6.226 5.108 6.226h40.866c2.819 0 5.108-2.79 5.108-6.226z" transform="matrix(.59931612518 0 0 .50104620726 201.642134528 144.40945856)"/><path d="m51.082 6.226c0-3.436-2.289-6.226-5.108-6.226h-40.866c-2.819 0-5.108 2.79-5.108 6.226v187.548c0 3.436 2.289 6.226 5.108 6.226h40.866c2.819 0 5.108-2.79 5.108-6.226z" transform="matrix(.59931612518 0 0 .50104620726 157.121213152 144.40945856)"/><path d="m86.492 0 113.508 100-112.974 100z" transform="matrix(.52602240461 0 0 .50104620726 36.3032070976 144.40945856)"/></g></svg>