<svg clip-rule="evenodd" fill-rule="evenodd" stroke-linecap="round" stroke-linejoin="round" stroke-miterlimit="1.5" viewBox="0 0 201 201" xmlns="http://www.w3.org/2000/svg"><g transform="matrix(1.11845 0 0 1.0977 -72.54 -113.067)"><path d="m65.656 103.415h178.819v182.199h-178.819z" fill="none"/><path d="m86.492 0 113.508 100-112.974 100z" fill="#008607" transform="matrix(.640195 0 -0 .449961 73.9739 149.518)"/><g transform="matrix(.89409667494 .00000063571 -.00000067607 .91099429025 64.8543396982 103.0029073545)"><path d="m163.038 15.246-53.34 5.903 36.727 39.13c-7.105-15.412 1.201-37.928 16.613-45.033z"/><path d="m145.725 34.44c23.647 16.1 37.847 44.423 34.474 74.814-4.858 43.768-44.336 75.359-88.105 70.501-43.768-4.858-75.359-44.336-70.501-88.105 3.228-29.077 21.735-52.78 46.628-63.991" fill="none" stroke="#000" stroke-width="16"/></g></g></svg>