<svg clip-rule="evenodd" fill-rule="evenodd" stroke-linecap="round" stroke-miterlimit="10" viewBox="0 0 201 201" xmlns="http://www.w3.org/2000/svg" xmlns:xlink="http://www.w3.org/1999/xlink"><clipPath id="a"><path clip-rule="evenodd" d="m65.656 103.415h178.819v182.199h-178.819z"/></clipPath><g transform="matrix(1.11845 0 0 1.0977 -72.629 -113.1965)"><path d="m65.656 103.415h178.819v182.199h-178.819z" fill="none"/><g clip-path="url(#a)"><path d="m51.082 5.341c0-2.948-2.289-5.341-5.108-5.341h-40.866c-2.819 0-5.108 2.393-5.108 5.341v189.318c0 2.948 2.289 5.341 5.108 5.341h40.866c2.819 0 5.108-2.393 5.108-5.341z" transform="matrix(0 .674975 -.633597 0 218.425 235.253)"/><g fill="none" stroke="#000" stroke-width="19" transform="matrix(.894096 0 0 .910993 64.93811792 103.121189)"><path d="m129.304 86.943-28.5 28.5-28.5-28.5"/><path d="m100.804 40.824v74.619" stroke-miterlimit="1.5"/></g></g></g></svg>